<svg width="200px" height="200px" viewBox="0 0 24 24" fill="none" xmlns="http://www.w3.org/2000/svg">
  <path d="M12 12c2.21 0 4-1.79 4-4s-1.79-4-4-4-4 1.79-4 4 1.79 4 4 4z" fill="#6D4C41"/>
  <path d="M6 14c-1.66 0-3 1.34-3 3v1h14v-1c0-1.66-1.34-3-3-3H6z" fill="#FFCC80"/>
  <path d="M16 13.77V12.5c0-1.38-1.12-2.5-2.5-2.5h-3C9.12 10 8 11.12 8 12.5v1.27c-.68.35-1.36.68-2 .89V18h12v-3.34c-.64-.21-1.32-.54-2-.89z" fill="#FFCC80"/>
  <path d="M12 13.25c2.62 0 5 1.79 5 4V21H7v-3.75c0-2.21 2.38-4 5-4z" fill="#FFCC80"/>
  <path d="M12 6c-.55 0-1 .45-1 1v1.25c0 .55.45 1 1 1s1-.45 1-1V7c0-.55-.45-1-1-1z" fill="#FFCC80"/>
  <path d="M9.22 8.78c-.39-.39-1.02-.39-1.41 0s-.39 1.02 0 1.41L8.25 12l-1.94 1.94c-.39.39-.39 1.02 0 1.41s1.02.39 1.41 0L10 13.75l1.94 1.94c.39.39 1.02.39 1.41 0s.39-1.02 0-1.41L11.75 12l1.94-1.94c.39-.39.39-1.02 0-1.41s-1.02-.39-1.41 0L10 10.25 8.06 8.31c-.39-.39-1.02-.39-1.41 0-.39.39-.39 1.02 0 1.41L8.25 12 6.31 13.94c-.39.39-.39 1.02 0 1.41s1.02.39 1.41 0L10 13.75l1.94 1.94c.39.39 1.02.39 1.41 0s.39-1.02 0-1.41L11.75 12l1.94-1.94c.39-.39.39-1.02 0-1.41s-1.02-.39-1.41 0L10 10.25 8.06 8.31z" fill="#FFCC80"/>
  <circle cx="12" cy="2" r="1.5" fill="#6D4C41"/>
  <path d="M8 14c0 .55-.45 1-1 1s-1-.45-1-1 .45-1 1-1 1 .45 1 1z" fill="#FFCC80"/>
  <path d="M14 14c0 .55-.45 1-1 1s-1-.45-1-1 .45-1 1-1 1 .45 1 1z" fill="#FFCC80"/>
  <path d="M12 16.5c-.55 0-1 .45-1 1v1.25c0 .55.45 1 1 1s1-.45 1-1V17.5c0-.55-.45-1-1-1z" fill="#FFCC80"/>
</svg>
